<svg width="150" height="47" viewBox="0 0 150 47" fill="none" xmlns="http://www.w3.org/2000/svg">
  <path fill-rule="evenodd" clip-rule="evenodd" d="M129.659 0.0467884C128.284 0.148194 126.708 0.476476 125.969 0.813351C124.801 1.34788 124.638 1.54898 123.506 3.84179C122.877 5.11538 122.49 6.01601 122.522 6.13804C122.657 6.65366 123.236 6.82726 126.02 7.19335C128.065 7.46148 131.836 7.48898 133.449 7.24663C135.908 6.8771 137.436 6.39241 137.778 5.87163C137.933 5.63444 137.914 5.56054 137.383 4.43304C137.073 3.77991 136.632 2.86726 136.398 2.40491L135.975 1.56444L134.903 1.00757C133.227 0.134444 131.855 -0.116493 129.659 0.0467884ZM136.922 7.93413C133.974 8.85194 133.45 8.93101 130.238 8.92929C126.682 8.92757 125.3 8.71788 122.928 7.82069C122.192 7.54226 122.302 7.52163 119.296 8.47038C117.966 8.89148 117.284 9.1596 117.158 9.31085C116.926 9.58929 116.923 10.019 117.148 10.3421C117.334 10.6068 118.564 11.2152 119.745 11.6277C120.565 11.913 120.551 11.8512 120.053 13.0354C119.542 14.2488 119.384 15.0274 119.324 16.6138C119.277 17.8565 119.305 18.2587 119.494 19.1748C120.171 22.4524 122.344 25.2557 125.382 26.7716C125.846 27.0037 126.281 27.1927 126.35 27.1927C126.507 27.1927 126.451 27.4213 126.01 28.6073C125.666 29.5268 125.645 29.556 125.059 29.898C124.238 30.3793 123.81 30.9516 123.347 32.1926C122.022 35.7469 120.372 40.116 118.915 43.9299C118.698 44.4937 118.726 45.4974 118.966 45.8927C119.26 46.3757 120.41 46.924 120.97 46.8501C121.947 46.7177 122.253 46.2296 123.772 42.371C124.449 40.6523 125.441 38.1326 125.977 36.773C126.515 35.4118 127.111 33.8959 127.302 33.4043C127.692 32.4057 127.763 31.5154 127.519 30.6646C127.383 30.1919 127.386 30.1799 127.942 29.006L128.5 27.8235L130.289 27.7874C132.196 27.7496 132.895 27.619 134.316 27.0398C136.532 26.1357 138.615 24.2365 139.719 22.1138C141.221 19.2263 141.394 15.8421 140.191 12.9065C139.856 12.0884 139.856 12.0557 140.212 11.9698C140.37 11.9302 140.951 11.7085 141.501 11.4748C143.704 10.5415 144.383 9.83507 143.854 9.02554C143.606 8.64741 143.02 8.37929 141.396 7.89288C139.351 7.28273 139 7.28616 136.922 7.93413ZM125.448 13.1282C128.557 13.6473 132.037 13.6146 135.695 13.0337C136.281 12.9391 136.81 12.8927 136.871 12.9305C137.022 13.0234 137.594 14.1784 137.831 14.8659C138.928 18.0559 137.562 21.9523 134.681 23.8377C133.168 24.826 131.563 25.2643 129.824 25.1629C127.849 25.0477 126.17 24.2915 124.764 22.8804C123.464 21.5759 122.789 20.316 122.481 18.6213C122.299 17.6227 122.351 16.2873 122.607 15.2921C122.772 14.6596 123.373 13.319 123.638 12.9976C123.762 12.848 123.77 12.848 125.448 13.1282ZM123.66 17.334C123.466 17.7809 123.734 19.1988 124.21 20.2455C124.745 21.4194 126.176 22.9182 127.313 23.4923C128.939 24.3138 131.163 24.3052 133.122 23.4716C133.71 23.2207 133.557 23.1829 132.763 23.3805C132.288 23.4991 131.63 23.5507 130.606 23.5473C128.92 23.5421 128.414 23.4098 127.142 22.6415C125.869 21.8715 124.917 20.701 124.281 19.1232C124.08 18.6265 123.879 17.9785 123.83 17.6812C123.767 17.2773 123.722 17.1896 123.66 17.334Z" fill="white"/>
  <path d="M22.4194 6.39582V26.189H17.5931V14.3158L13.1656 26.189H9.27438L4.82625 14.2883V26.189H0V6.39582H5.69938L11.2544 20.0977L16.7475 6.39582H22.4194Z" fill="white"/>
  <path d="M28.3097 8.8227C27.4607 8.8227 26.7697 8.57348 26.2335 8.07333C25.7007 7.57489 25.436 6.95786 25.436 6.22395C25.436 5.47286 25.7007 4.84895 26.2335 4.35395C26.7697 3.85551 27.4607 3.60458 28.3097 3.60458C29.1347 3.60458 29.8154 3.85551 30.3516 4.35395C30.8879 4.84895 31.156 5.47286 31.156 6.22395C31.156 6.95786 30.8879 7.57489 30.3516 8.07333C29.8154 8.57348 29.1347 8.8227 28.3097 8.8227ZM30.7091 10.459V26.189H25.8829V10.459H30.7091Z" fill="white"/>
  <path d="M43.791 10.2871C45.6283 10.2871 47.0978 10.8852 48.1978 12.0815C49.2978 13.2743 49.8478 14.9122 49.8478 16.9971V26.189H45.056V17.6433C45.056 16.5949 44.7827 15.7785 44.2378 15.1958C43.6913 14.6097 42.9591 14.3158 42.0378 14.3158C41.1166 14.3158 40.3827 14.6097 39.8378 15.1958C39.2964 15.7785 39.0266 16.5949 39.0266 17.6433V26.189H34.2003V10.459H39.0266V12.5421C39.5113 11.846 40.1678 11.296 40.9928 10.8921C41.8213 10.4899 42.7545 10.2871 43.791 10.2871Z" fill="white"/>
  <path d="M68.033 18.0696C68.033 18.5199 68.0055 18.9891 67.9505 19.479H57.0399C57.1121 20.4552 57.4266 21.2029 57.9818 21.7202C58.5352 22.2393 59.2193 22.4971 60.0305 22.4971C61.2302 22.4971 62.0672 21.9883 62.5399 20.9708H67.6687C67.4074 22.0072 66.933 22.9405 66.2455 23.769C65.558 24.594 64.6952 25.2436 63.6605 25.7146C62.6293 26.1821 61.4743 26.4158 60.1955 26.4158C58.6555 26.4158 57.2822 26.0893 56.0774 25.4327C54.876 24.7727 53.9358 23.8343 53.2587 22.614C52.5849 21.3902 52.248 19.9602 52.248 18.324C52.248 16.6877 52.5797 15.2611 53.2449 14.0408C53.9135 12.8171 54.8485 11.8786 56.0499 11.2221C57.2547 10.5621 58.6366 10.2321 60.1955 10.2321C61.7166 10.2321 63.0693 10.5535 64.2518 11.1946C65.4377 11.8322 66.3641 12.7415 67.0293 13.924C67.6979 15.1065 68.033 16.4883 68.033 18.0696ZM63.1037 16.7977C63.1037 15.9727 62.8218 15.3179 62.258 14.8315C61.6943 14.3416 60.9879 14.0958 60.1405 14.0958C59.3327 14.0958 58.6521 14.333 58.0987 14.804C57.5435 15.2715 57.1997 15.9366 57.0674 16.7977H63.1037Z" fill="white"/>
  <path d="M75.3979 13.0783C75.9617 12.2121 76.6646 11.5315 77.5085 11.0365C78.3559 10.538 79.296 10.2871 80.3273 10.2871V15.3883H79.0004C77.799 15.3883 76.8984 15.6479 76.2985 16.1652C75.697 16.6843 75.3979 17.5918 75.3979 18.8877V26.189H70.5717V10.459H75.3979V13.0783Z" fill="white"/>
  <path d="M81.6834 18.2964C81.6834 16.6791 81.9877 15.2611 82.5978 14.0408C83.2063 12.8171 84.0381 11.8786 85.0934 11.2221C86.147 10.5621 87.3227 10.2321 88.6203 10.2321C89.7289 10.2321 90.7 10.4589 91.5353 10.9127C92.3741 11.363 93.0169 11.9543 93.4672 12.6865V10.459H98.2866V26.189H93.4672V23.9615C92.9997 24.6954 92.3466 25.2883 91.5078 25.7421C90.6725 26.1907 89.7014 26.4158 88.5928 26.4158C87.3141 26.4158 86.147 26.0841 85.0934 25.419C84.0381 24.7504 83.2063 23.7999 82.5978 22.5658C81.9877 21.3335 81.6834 19.9104 81.6834 18.2964ZM93.4672 18.324C93.4672 17.1191 93.132 16.1704 92.4634 15.4777C91.7983 14.7816 90.987 14.4327 90.0297 14.4327C89.0706 14.4327 88.2577 14.7765 87.5891 15.464C86.9187 16.148 86.5853 17.0916 86.5853 18.2964C86.5853 19.4979 86.9187 20.4518 87.5891 21.1565C88.2577 21.8629 89.0706 22.2152 90.0297 22.2152C90.987 22.2152 91.7983 21.868 92.4634 21.1702C93.132 20.4741 93.4672 19.5254 93.4672 18.324Z" fill="white"/>
  <path d="M111.876 26.189L107.765 18.7158H106.61V26.189H101.783V6.39582H109.875C111.438 6.39582 112.766 6.66911 113.863 7.21395C114.963 7.76051 115.784 8.50645 116.331 9.4552C116.876 10.404 117.149 11.461 117.149 12.6246C117.149 13.9411 116.778 15.1168 116.035 16.1515C115.293 17.1879 114.2 17.9218 112.756 18.3514L117.321 26.189H111.876ZM106.61 15.3058H109.593C110.477 15.3058 111.14 15.091 111.58 14.6596C112.024 14.2247 112.247 13.6129 112.247 12.824C112.247 12.0729 112.024 11.4816 111.58 11.0502C111.14 10.6154 110.477 10.3971 109.593 10.3971H106.61V15.3058Z" fill="white"/>
  <path d="M146.516 8.8227C145.667 8.8227 144.976 8.57348 144.439 8.07333C143.907 7.57489 143.642 6.95786 143.642 6.22395C143.642 5.47286 143.907 4.84895 144.439 4.35395C144.976 3.85551 145.667 3.60458 146.516 3.60458C147.341 3.60458 148.021 3.85551 148.558 4.35395C149.094 4.84895 149.362 5.47286 149.362 6.22395C149.362 6.95786 149.094 7.57489 148.558 8.07333C148.021 8.57348 147.341 8.8227 146.516 8.8227ZM148.915 10.459V26.189H144.089V10.459H148.915Z" fill="white"/>
</svg>
